<svg xmlns="http://www.w3.org/2000/svg" xmlns:xlink="http://www.w3.org/1999/xlink" version="1.1" id="Layer_1" x="0px" y="0px" style="enable-background:new 0 0 1000 1000;" xml:space="preserve" viewBox="149 433.49 702.01 133.01">
<style type="text/css">
	.st0{fill:#1248F7;}
	.st1{fill:#141618;}
</style>
<g>
	<g>
		<path class="st0" d="M207.09,566.5c-0.64,0-1.29-0.16-1.89-0.51l-54.31-31.36c-1.17-0.68-1.89-1.93-1.89-3.28v-62.71    c0-1.35,0.72-2.6,1.89-3.28l54.31-31.36c1.17-0.68,2.62-0.68,3.79,0l54.31,31.36c1.81,1.05,2.43,3.36,1.39,5.17    c-1.05,1.81-3.36,2.43-5.17,1.39l-52.42-30.26l-50.52,29.17v58.34l52.42,30.26c1.81,1.05,2.43,3.36,1.39,5.17    C209.67,565.82,208.4,566.5,207.09,566.5z"/>
		<path class="st0" d="M207.09,549.68c-0.65,0-1.31-0.17-1.89-0.51l-39.75-22.95c-1.17-0.68-1.89-1.93-1.89-3.28v-45.89    c0-1.35,0.72-2.6,1.89-3.28l39.75-22.95c1.81-1.05,4.13-0.43,5.17,1.39c1.05,1.81,0.42,4.13-1.39,5.17l-37.85,21.85v41.52    l35.96,20.76l37.85-21.85c1.81-1.05,4.13-0.43,5.17,1.39c1.05,1.81,0.42,4.13-1.39,5.17l-39.75,22.95    C208.4,549.51,207.75,549.68,207.09,549.68z"/>
		<path class="st0" d="M207.09,531.93c-0.65,0-1.31-0.17-1.89-0.51l-24.37-14.07c-1.17-0.68-1.89-1.93-1.89-3.28v-28.14    c0-2.09,1.7-3.79,3.79-3.79s3.79,1.7,3.79,3.79v25.96l20.59,11.89l20.59-11.89v-23.77l-22.48-12.98    c-1.81-1.05-2.43-3.36-1.39-5.17c1.05-1.81,3.36-2.43,5.17-1.39l24.37,14.07c1.17,0.68,1.89,1.93,1.89,3.28v28.14    c0,1.35-0.72,2.6-1.89,3.28l-24.37,14.07C208.4,531.76,207.75,531.93,207.09,531.93z"/>
		<path class="st0" d="M207.09,515.56c-0.65,0-1.31-0.17-1.89-0.51l-10.2-5.89c-1.81-1.05-2.43-3.36-1.39-5.17    c1.05-1.81,3.36-2.43,5.17-1.39l8.3,4.79l6.41-3.7v-7.4l-8.3-4.79c-1.81-1.05-2.43-3.36-1.39-5.17c1.05-1.81,3.36-2.43,5.17-1.39    l10.2,5.89c1.17,0.68,1.89,1.93,1.89,3.28v11.77c0,1.35-0.72,2.6-1.89,3.28l-10.2,5.89C208.4,515.39,207.75,515.56,207.09,515.56z    "/>
	</g>
	<g>
		<path class="st1" d="M281.32,539.78v-80.12h12.64v68.95h42.99v11.17H281.32z"/>
		<path class="st1" d="M595.88,498.42c-1.4-3.64-3.41-6.84-6.04-9.59c-2.64-2.74-5.81-4.94-9.54-6.6    c-3.72-1.65-7.89-2.48-12.47-2.48c-4.67,0-8.87,0.82-12.64,2.43c-3.77,1.62-6.98,3.84-9.65,6.66s-4.74,6.09-6.21,9.82    c-1.47,3.72-2.2,7.66-2.2,11.79c0,4.15,0.73,8.05,2.2,11.74c1.47,3.7,3.54,6.93,6.21,9.7c2.67,2.79,5.88,4.99,9.65,6.6    c3.77,1.62,7.94,2.43,12.53,2.43c6.23,0,11.72-1.41,16.42-4.23c4.7-2.82,8.07-6.45,10.1-10.89l-10.61-3.05    c-0.61,1.35-1.42,2.6-2.48,3.72s-2.26,2.09-3.61,2.88c-1.35,0.79-2.85,1.4-4.46,1.81c-1.62,0.42-3.26,0.62-4.91,0.62    c-2.26,0-4.43-0.41-6.49-1.24c-2.07-0.82-3.92-2-5.53-3.55c-1.62-1.54-3-3.33-3.95-5.47c-4.86-10.98-2.16-18.54-0.39-22.57    c0.93-2.12,2.26-3.89,3.84-5.36c1.58-1.47,3.4-2.61,5.47-3.44c2.07-0.82,4.27-1.24,6.6-1.24c2.33,0,4.56,0.42,6.66,1.24    c2.1,0.83,3.95,1.97,5.53,3.44c1.58,1.47,2.88,3.26,3.89,5.36c1.02,2.12,1.64,4.4,1.86,6.88h-27.12c-2.19,0-2.96,1.77-2.96,3.96    v0.65c0,2.19,0.77,3.96,2.96,3.96h39.08c0.07-0.52,0.16-1.18,0.23-1.97c0.07-0.79,0.11-1.64,0.11-2.54    C597.96,505.9,597.26,502.08,595.88,498.42z"/>
		<path class="st1" d="M724.88,498.42c-1.4-3.64-3.41-6.84-6.04-9.59c-2.64-2.74-5.81-4.94-9.54-6.6    c-3.72-1.65-7.89-2.48-12.47-2.48c-4.67,0-8.87,0.82-12.64,2.43c-3.77,1.62-6.98,3.84-9.65,6.66s-4.74,6.09-6.21,9.82    c-1.47,3.72-2.2,7.66-2.2,11.79c0,4.15,0.73,8.05,2.2,11.74c1.47,3.7,3.54,6.93,6.21,9.7c2.67,2.79,5.88,4.99,9.65,6.6    c3.77,1.62,7.94,2.43,12.53,2.43c6.23,0,11.72-1.41,16.42-4.23c4.7-2.82,8.07-6.45,10.1-10.89l-10.61-3.05    c-0.61,1.35-1.42,2.6-2.48,3.72s-2.26,2.09-3.61,2.88c-1.35,0.79-2.85,1.4-4.46,1.81c-1.62,0.42-3.26,0.62-4.91,0.62    c-2.26,0-4.43-0.41-6.49-1.24c-2.07-0.82-3.92-2-5.53-3.55c-1.62-1.54-3-3.33-3.95-5.47c-4.86-10.98-2.16-18.54-0.39-22.57    c0.93-2.12,2.26-3.89,3.84-5.36c1.58-1.47,3.4-2.61,5.47-3.44c2.07-0.82,4.27-1.24,6.6-1.24c2.33,0,4.56,0.42,6.66,1.24    c2.1,0.83,3.95,1.97,5.53,3.44c1.58,1.47,2.88,3.26,3.89,5.36c1.02,2.12,1.64,4.4,1.86,6.88h-27.12c-2.19,0-2.96,1.77-2.96,3.96    v0.65c0,2.19,0.77,3.96,2.96,3.96h39.08c0.07-0.52,0.16-1.18,0.23-1.97c0.07-0.79,0.11-1.64,0.11-2.54    C726.96,505.9,726.26,502.08,724.88,498.42z"/>
		<path class="st1" d="M397.88,498.42c-1.4-3.64-3.41-6.84-6.04-9.59c-2.64-2.74-5.81-4.94-9.54-6.6    c-3.72-1.65-7.88-2.48-12.47-2.48c-4.67,0-8.87,0.82-12.64,2.43c-3.77,1.62-6.98,3.84-9.65,6.66c-2.67,2.82-4.74,6.09-6.21,9.82    c-1.47,3.72-2.2,7.66-2.2,11.79c0,4.15,0.73,8.05,2.2,11.74c1.47,3.7,3.54,6.93,6.21,9.7c2.67,2.79,5.88,4.99,9.65,6.6    c3.77,1.62,7.94,2.43,12.53,2.43c6.23,0,11.72-1.41,16.42-4.23c4.7-2.82,8.07-6.45,10.1-10.89l-10.61-3.05    c-0.61,1.35-1.42,2.6-2.48,3.72c-1.06,1.13-2.26,2.09-3.61,2.88c-1.35,0.79-2.85,1.4-4.46,1.81c-1.62,0.42-3.26,0.62-4.91,0.62    c-2.26,0-4.43-0.41-6.49-1.24c-2.07-0.82-3.92-2-5.53-3.55c-1.62-1.54-3-3.33-3.95-5.47c-4.86-10.98-2.16-18.54-0.39-22.57    c0.93-2.12,2.26-3.89,3.84-5.36c1.58-1.47,3.4-2.61,5.47-3.44c2.07-0.82,4.27-1.24,6.6-1.24c2.33,0,4.56,0.42,6.66,1.24    c2.1,0.83,3.95,1.97,5.53,3.44c1.58,1.47,2.88,3.26,3.89,5.36c1.02,2.12,1.64,4.4,1.86,6.88h-27.12c-2.19,0-2.96,1.77-2.96,3.96    v0.65c0,2.19,0.77,3.96,2.96,3.96h39.08c0.07-0.52,0.16-1.18,0.23-1.97c0.07-0.79,0.11-1.64,0.11-2.54    C399.96,505.9,399.26,502.08,397.88,498.42z"/>
		<polygon class="st1" points="434.66,513.15 428.42,521.73 441.51,539.78 454.48,539.78   "/>
		<polygon class="st1" points="454.26,480.76 441.39,480.76 428.47,498.85 434.97,507.21   "/>
		<polygon class="st0" points="410.47,480.76 397.61,480.76 419.16,510.33 397.38,539.78 410.36,539.78 432.18,509.95   "/>
		<path class="st1" d="M518.07,529.85c-6.55,7-14.18,10.49-22.91,10.49c-5.19,0-10.06-1.15-14.61-3.44    c-4.55-2.29-8.5-5.34-11.85-9.14c-3.35-3.8-5.98-8.16-7.9-13.09c-1.92-4.93-2.88-10.02-2.88-15.29c0-5.42,0.96-10.57,2.88-15.46    c1.92-4.89,4.55-9.18,7.9-12.86c3.35-3.68,7.32-6.6,11.9-8.74c4.59-2.14,9.59-3.22,15.01-3.22c7.52,0,13.84,1.6,18.96,4.8    c5.11,3.2,8.99,7.43,11.62,12.69l-9.7,7c-2.18-4.36-5.13-7.63-8.86-9.82c-3.72-2.18-7.84-3.27-12.36-3.27    c-3.69,0-7.03,0.81-10.04,2.43c-3.01,1.62-5.59,3.76-7.73,6.43c-2.14,2.67-3.8,5.77-4.97,9.31c-1.17,3.54-1.75,7.22-1.75,11.06    c0,4.06,0.64,7.86,1.92,11.4c1.28,3.54,3.06,6.62,5.36,9.25c2.29,2.63,4.98,4.72,8.07,6.26c3.08,1.54,6.43,2.31,10.04,2.31    c8.12,0,15.42-3.95,21.89-11.85v-8.46h-16.81v-9.37h27.42v40.51h-10.61V529.85z"/>
		<path class="st1" d="M658.89,539.78h-12.41v-33.06c0-5.57-0.9-9.61-2.71-12.13c-1.8-2.52-4.4-3.78-7.79-3.78    c-1.81,0-3.63,0.34-5.47,1.02c-1.84,0.68-3.56,1.64-5.14,2.88c-1.58,1.24-2.99,2.71-4.23,4.4c-1.24,1.69-2.2,3.55-2.88,5.59v35.09    h-12.41v-59.02h11.28v11.85c2.26-3.99,5.53-7.13,9.82-9.42c4.29-2.29,9.03-3.44,14.22-3.44c3.53,0,6.45,0.64,8.75,1.92    c2.29,1.28,4.1,3.03,5.42,5.25c1.32,2.22,2.24,4.78,2.76,7.67c0.53,2.9,0.79,5.96,0.79,9.2V539.78z"/>
		<path class="st1" d="M768.97,491.49c-4.82,0.15-9.07,1.26-12.75,3.33c-3.69,2.07-6.36,5.02-8.01,8.86v36.11h-12.41v-59.02h11.51    v13.2c2.11-4.06,4.8-7.37,8.07-9.93c3.27-2.56,6.75-3.84,10.44-3.84c0.75,0,1.37,0,1.86,0c0.49,0,0.92,0.04,1.3,0.11V491.49z"/>
		<path class="st1" d="M776.96,467.78v-1.45c0-4,3.24-7.24,7.24-7.24l0,0c4,0,7.24,3.24,7.24,7.24v1.45c0,4-3.24,7.24-7.24,7.24l0,0    C780.2,475.02,776.96,471.78,776.96,467.78z"/>
		<rect x="777.99" y="480.77" class="st1" width="12.41" height="59.02"/>
		<path class="st1" d="M827.08,540.91c-2.41,0-4.83-0.19-7.28-0.56c-2.45-0.38-4.85-0.92-7.22-1.64c-2.37-0.71-4.63-1.58-6.77-2.6    c-2.14-1.02-4.04-2.16-5.7-3.44l5.19-8.35c7.22,5.04,14.4,7.56,21.55,7.56c3.76,0,6.73-0.71,8.92-2.14    c2.18-1.43,3.27-3.46,3.27-6.09c0-2.48-1.22-4.31-3.67-5.47c-2.45-1.17-6.34-2.39-11.68-3.67c-3.69-0.9-6.85-1.82-9.48-2.76    c-2.63-0.94-4.78-1.99-6.43-3.16c-1.66-1.17-2.86-2.56-3.61-4.18c-0.75-1.62-1.13-3.55-1.13-5.81c0-3.01,0.6-5.68,1.81-8.01    c1.2-2.33,2.84-4.31,4.91-5.92c2.07-1.62,4.51-2.84,7.34-3.67c2.82-0.83,5.85-1.24,9.08-1.24c4.29,0,8.42,0.68,12.41,2.03    c3.99,1.35,7.56,3.2,10.72,5.53l-5.3,7.56c-5.64-4.21-11.66-6.32-18.05-6.32c-3.16,0-5.83,0.66-8.01,1.97    c-2.18,1.32-3.27,3.4-3.27,6.26c0,1.2,0.23,2.22,0.68,3.05c0.45,0.83,1.18,1.54,2.2,2.14c1.02,0.6,2.35,1.15,4.01,1.64    c1.65,0.49,3.68,1.04,6.09,1.64c4.06,0.98,7.56,1.96,10.49,2.93c2.93,0.98,5.36,2.13,7.28,3.44c1.92,1.32,3.33,2.86,4.23,4.63    c0.9,1.77,1.35,3.89,1.35,6.38c0,2.78-0.56,5.3-1.69,7.56c-1.13,2.26-2.73,4.18-4.79,5.75c-2.07,1.58-4.59,2.8-7.56,3.67    C833.98,540.48,830.69,540.91,827.08,540.91z"/>
		<polygon class="st1" points="437.22,516.42 434.66,513.15 434.72,513.06   "/>
	</g>
</g>
</svg>